<?xml version="1.0" encoding="UTF-8" standalone="no"?>
<!-- Created with Inkscape (http://www.inkscape.org/) -->

<svg
   xmlns:dc="http://purl.org/dc/elements/1.1/"
   xmlns:cc="http://creativecommons.org/ns#"
   xmlns:rdf="http://www.w3.org/1999/02/22-rdf-syntax-ns#"
   xmlns:svg="http://www.w3.org/2000/svg"
   xmlns="http://www.w3.org/2000/svg"
   xmlns:sodipodi="http://sodipodi.sourceforge.net/DTD/sodipodi-0.dtd"
   xmlns:inkscape="http://www.inkscape.org/namespaces/inkscape"
   width="210mm"
   height="210mm"
   viewBox="0 0 210 210"
   version="1.1"
   id="svg3748"
   inkscape:version="0.92.4 (5da689c313, 2019-01-14)"
   sodipodi:docname="GA.svg">
  <defs
     id="defs3742" />
  <sodipodi:namedview
     id="base"
     pagecolor="#ffffff"
     bordercolor="#666666"
     borderopacity="1.0"
     inkscape:pageopacity="0.0"
     inkscape:pageshadow="2"
     inkscape:zoom="0.35"
     inkscape:cx="400"
     inkscape:cy="560"
     inkscape:document-units="mm"
     inkscape:current-layer="layer1"
     showgrid="false"
     inkscape:window-width="1920"
     inkscape:window-height="1027"
     inkscape:window-x="-8"
     inkscape:window-y="-8"
     inkscape:window-maximized="1" />
  <metadata
     id="metadata3745">
    <rdf:RDF>
      <cc:Work
         rdf:about="">
        <dc:format>image/svg+xml</dc:format>
        <dc:type
           rdf:resource="http://purl.org/dc/dcmitype/StillImage" />
        <dc:title></dc:title>
      </cc:Work>
    </rdf:RDF>
  </metadata>
  <g
     inkscape:label="Layer 1"
     inkscape:groupmode="layer"
     id="layer1"
     transform="translate(0,-87)">
    <g
       id="g425"
       transform="matrix(35.34615,0,0,35.473598,-2261.1811,-5811.7729)">
      <g
         style="fill:#ffffff;fill-opacity:1"
         id="g419">
        <path
           inkscape:connector-curvature="0"
           id="path58"
           style="fill:#ffffff;fill-opacity:1;fill-rule:nonzero;stroke:none;stroke-width:0.35277778"
           d="m 67.8678,170.9746 -0.10689,-0.84102 h -0.28434 l -0.10689,0.84102 H 66.8712 l 0.45756,-3.4611 h 0.57361 l 0.45967,3.4611 z m -1.10878,-2.31881 h -0.47061 v -0.52281 c 0,-0.0166 -0.002,-0.0353 -0.007,-0.0579 -0.005,-0.0222 -0.0123,-0.0423 -0.0236,-0.061 -0.0113,-0.0187 -0.0268,-0.0346 -0.0462,-0.0473 -0.019,-0.0127 -0.0444,-0.0194 -0.0759,-0.0194 -0.002,0 -0.004,3.6e-4 -0.007,7.1e-4 v -7.1e-4 c -0.0317,0 -0.0568,0.007 -0.0762,0.0194 -0.019,0.0127 -0.0346,0.0286 -0.0459,0.0473 -0.0109,0.0187 -0.019,0.0388 -0.0233,0.061 -0.005,0.0226 -0.007,0.0413 -0.007,0.0579 v 2.26765 c 0,0.0325 0.008,0.0646 0.0236,0.0949 0.0155,0.0303 0.0533,0.0455 0.11148,0.0455 0.0451,0 0.0825,-0.0127 0.11112,-0.0371 0.0296,-0.0243 0.0441,-0.0568 0.0441,-0.096 v -0.65511 h -0.10372 v -0.41663 h 0.57432 v 1.04669 c 0,0.20109 -0.0529,0.35313 -0.1591,0.45685 -0.10583,0.10407 -0.25576,0.15628 -0.44944,0.15628 -0.21731,0 -0.375,-0.0515 -0.47413,-0.15416 -0.0988,-0.10302 -0.14887,-0.25683 -0.14887,-0.46214 v -2.24684 c 0,-0.19368 0.054,-0.3489 0.16157,-0.46567 0.10689,-0.11677 0.26211,-0.17498 0.46496,-0.17498 0.20285,0 0.35772,0.0582 0.46496,0.17498 0.10724,0.11677 0.16122,0.27199 0.16122,0.46567 z m 2.77671,0.58844 c 0,-0.19827 0.16122,-0.35878 0.35913,-0.35878 l -0.0885,-0.44274 c -0.18274,0.0759 -0.39264,-0.0109 -0.46849,-0.19402 -0.0755,-0.1831 0.0113,-0.393 0.19439,-0.46849 l -0.25118,-0.37571 c -0.1397,0.14005 -0.36724,0.14005 -0.50694,0 -0.14006,-0.14005 -0.14006,-0.36724 0,-0.5073 l -0.37571,-0.25082 c -0.0755,0.18309 -0.28575,0.26987 -0.46849,0.19438 -0.18309,-0.0759 -0.26988,-0.2861 -0.19403,-0.46884 l -0.44273,-0.0882 c 0,0.19791 -0.16052,0.35878 -0.35878,0.35878 -0.19791,0 -0.35877,-0.16087 -0.35877,-0.35878 l -0.44274,0.0882 c 0.0755,0.18309 -0.0113,0.39299 -0.19438,0.46849 -0.18239,0.0758 -0.39264,-0.0109 -0.46814,-0.19403 l -0.37606,0.25118 c 0.14041,0.1397 0.14041,0.36689 0,0.50694 -0.1397,0.14005 -0.36724,0.14005 -0.50694,0 l -0.25083,0.37571 c 0.1831,0.0755 0.27023,0.28539 0.19403,0.46813 -0.0755,0.18345 -0.28575,0.27023 -0.46849,0.19438 l -0.0878,0.44274 c 0.19791,0 0.35842,0.16051 0.35842,0.35878 0,0.1979 -0.16051,0.35842 -0.35842,0.35842 l 0.0878,0.44309 c 0.18274,-0.0755 0.393,0.0113 0.46849,0.19438 0.0762,0.18238 -0.0109,0.39264 -0.19403,0.46849 l 0.25083,0.37535 c 0.14041,-0.14005 0.36724,-0.14005 0.50694,0 0.14041,0.14005 0.14041,0.36724 0,0.5073 l 0.37606,0.25047 c 0.0755,-0.18274 0.28575,-0.26988 0.46814,-0.19368 0.18309,0.0755 0.26987,0.28575 0.19438,0.46814 l 0.44274,0.0882 c 0,-0.19791 0.16086,-0.35842 0.35877,-0.35842 0.19826,0 0.35878,0.16051 0.35878,0.35842 l 0.44273,-0.0882 c -0.0759,-0.18274 0.0109,-0.39264 0.19403,-0.46814 0.18274,-0.0762 0.39299,0.0109 0.46849,0.19368 l 0.37571,-0.25047 c -0.14006,-0.14006 -0.14006,-0.36725 0,-0.5073 0.1397,-0.14005 0.36724,-0.14005 0.50694,3.5e-4 l 0.25118,-0.37606 c -0.1831,-0.0755 -0.27059,-0.28575 -0.19439,-0.46813 0.0759,-0.18309 0.28575,-0.27023 0.46885,-0.19438 l 0.0882,-0.44309 c -0.19791,0 -0.35913,-0.16052 -0.35913,-0.35842" />
      </g>
    </g>
  </g>
</svg>
