<?xml version="1.0" encoding="UTF-8" standalone="no"?>
<svg
   xmlns:dc="http://purl.org/dc/elements/1.1/"
   xmlns:cc="http://creativecommons.org/ns#"
   xmlns:rdf="http://www.w3.org/1999/02/22-rdf-syntax-ns#"
   xmlns:svg="http://www.w3.org/2000/svg"
   xmlns="http://www.w3.org/2000/svg"
   xmlns:sodipodi="http://sodipodi.sourceforge.net/DTD/sodipodi-0.dtd"
   xmlns:inkscape="http://www.inkscape.org/namespaces/inkscape"
   version="1.1"
   id="Layer_1"
   x="0px"
   y="0px"
   width="24px"
   height="24px"
   viewBox="0 0 24 24"
   xml:space="preserve"
   sodipodi:docname="Github2.svg"
   inkscape:version="0.92.4 (5da689c313, 2019-01-14)"><defs
     id="defs9" /><sodipodi:namedview
     pagecolor="#ffffff"
     bordercolor="#666666"
     borderopacity="1"
     objecttolerance="10"
     gridtolerance="10"
     guidetolerance="10"
     inkscape:pageopacity="0"
     inkscape:pageshadow="2"
     inkscape:window-width="1920"
     inkscape:window-height="1027"
     id="namedview7"
     showgrid="false"
     inkscape:zoom="9.8333333"
     inkscape:cx="12"
     inkscape:cy="12"
     inkscape:window-x="-8"
     inkscape:window-y="-8"
     inkscape:window-maximized="1"
     inkscape:current-layer="Layer_1" /><path
     d="M15.5 22.7h-.1l-.1-.1V22v-2.5c0-.7-.1-1.3-.4-1.8 2.3-.4 4.8-1.6 4.8-6.1 0-1.2-.4-2.3-1.1-3.2.2-.6.3-1.7-.2-3.1l-.3-.3s-.2-.1-.4-.1c-.6 0-1.5.2-3 1.2-.8-.1-1.7-.3-2.7-.3-1 0-1.9.1-2.8.3C7.8 5.2 6.8 5 6.2 5c-.2 0-.3.1-.4.1-.1 0-.3.2-.3.3-.5 1.4-.4 2.5-.2 3.1-.7.9-1.1 2-1.1 3.2 0 4.4 2.6 5.6 4.8 6.1-.1.2-.2.5-.3.8-.2.1-.5.2-.9.2s-.8-.1-1.1-.4l-.1-.1c-.1-.1-.1-.2-.2-.2l-.1-.1-.1-.1c0-.1-.8-1.3-2.2-1.4-.5 0-.9.2-1 .5-.2.5.4.9.7 1.1 0 0 .6.3 1 1.4.2.7 1.1 2 3.2 2h.7v1.4l-.1.1s-.1 0 0 0C4 21.2 1 17 1 12.3c0-6.1 4.9-11 11-11s11 4.9 11 11c0 4.7-3 8.9-7.5 10.4z"
     id="path2" /><metadata
     id="metadata4"><rdf:RDF><rdf:Description
         about="https://iconscout.com/legal#licenses"
         dc:title="github"
         dc:description="github"
         dc:publisher="Iconscout"
         dc:date="2018-01-30"
         dc:format="image/svg+xml"
         dc:language="en"><dc:creator><rdf:Bag><rdf:li>Roundicons.com</rdf:li></rdf:Bag></dc:creator></rdf:Description><cc:Work
         rdf:about=""><dc:format>image/svg+xml</dc:format><dc:type
           rdf:resource="http://purl.org/dc/dcmitype/StillImage" /><dc:title></dc:title></cc:Work></rdf:RDF></metadata><path
     style="fill:#ffffff;stroke-width:0.10169491"
     d="M 7.4710664,22.456112 C 4.4910581,20.89975 2.3560719,18.350226 1.487334,15.310554 -0.2890202,9.0951757 3.6329475,2.7430213 9.9915623,1.5368127 c 1.0392377,-0.19714 2.9776377,-0.19714 4.0168757,0 6.356593,1.2058251 10.285278,7.5698316 8.502929,13.7737413 -0.720891,2.509242 -2.310914,4.65546 -4.527712,6.111521 -0.788718,0.518054 -2.233826,1.215213 -2.518958,1.215213 -0.07305,0 -0.108765,-0.579874 -0.108765,-1.765781 0,-0.971179 -0.04976,-2.012281 -0.110584,-2.313559 -0.06082,-0.301278 -0.118025,-0.609077 -0.127119,-0.683997 -0.0105,-0.08653 0.261679,-0.21861 0.746178,-0.362092 1.086219,-0.321678 1.58528,-0.61051 2.314004,-1.339234 1.015592,-1.015592 1.418691,-2.081102 1.517015,-4.009913 0.07028,-1.378747 -0.08053,-2.126853 -0.630454,-3.1273134 C 18.729399,8.4248977 18.717286,8.3665509 18.777717,7.651654 18.850969,6.7850807 18.611735,5.4989113 18.307571,5.1240615 17.921199,4.6478972 16.572655,4.9050176 15.252093,5.7066351 L 14.690626,6.0474609 13.624974,5.8929318 C 12.502494,5.7301621 10.503132,5.7612956 9.7118644,5.9538657 9.3389115,6.0446309 9.2289745,6.0158927 8.3898305,5.6082773 6.9024684,4.885789 5.8808395,4.7674674 5.5457458,5.2788851 5.2616994,5.7123947 5.0596077,6.8741951 5.121892,7.7155681 5.178103,8.4748998 5.1668179,8.5304198 4.8325001,9.1392969 4.3719141,9.9781399 4.1694915,10.800379 4.1694915,11.832433 c 0,2.978427 1.39736,4.988246 4.0169492,5.777565 0.3355932,0.101119 0.6405912,0.209643 0.6777732,0.241164 0.037182,0.03152 -0.00895,0.217355 -0.1025173,0.412963 -0.1395147,0.291666 -0.2483114,0.372146 -0.60473,0.447334 C 7.430519,18.864706 7.0227218,18.673145 6.2538774,17.817493 5.4351987,16.90638 4.7441697,16.496991 4.0127824,16.489792 c -0.6930478,-0.0068 -1.0636299,0.235932 -1.0636299,0.696743 0,0.292154 0.093821,0.423539 0.653049,0.914514 0.5279541,0.463518 0.7299059,0.734328 1.0542756,1.413742 0.6610654,1.384646 1.448803,1.906295 2.9960653,1.984028 l 0.8898305,0.0447 v 0.699425 c 0,0.384683 -0.034322,0.697981 -0.076271,0.696214 -0.041949,-0.0018 -0.489715,-0.219138 -0.9950353,-0.48305 z"
     id="path11"
     inkscape:connector-curvature="0" /></svg>