<?xml version="1.0" encoding="UTF-8" standalone="no"?>
<!-- Generator: Adobe Illustrator 16.0.0, SVG Export Plug-In . SVG Version: 6.00 Build 0)  -->

<svg
   xmlns:dc="http://purl.org/dc/elements/1.1/"
   xmlns:cc="http://creativecommons.org/ns#"
   xmlns:rdf="http://www.w3.org/1999/02/22-rdf-syntax-ns#"
   xmlns:svg="http://www.w3.org/2000/svg"
   xmlns="http://www.w3.org/2000/svg"
   xmlns:sodipodi="http://sodipodi.sourceforge.net/DTD/sodipodi-0.dtd"
   xmlns:inkscape="http://www.inkscape.org/namespaces/inkscape"
   version="1.1"
   id="Capa_1"
   x="0px"
   y="0px"
   width="430.117px"
   height="430.117px"
   viewBox="0 0 430.117 430.117"
   style="enable-background:new 0 0 430.117 430.117;"
   xml:space="preserve"
   sodipodi:docname="Linkedin2.svg"
   inkscape:version="0.92.4 (5da689c313, 2019-01-14)"><metadata
   id="metadata91"><rdf:RDF><cc:Work
       rdf:about=""><dc:format>image/svg+xml</dc:format><dc:type
         rdf:resource="http://purl.org/dc/dcmitype/StillImage" /><dc:title></dc:title></cc:Work></rdf:RDF></metadata><defs
   id="defs89" /><sodipodi:namedview
   pagecolor="#ffffff"
   bordercolor="#666666"
   borderopacity="1"
   objecttolerance="10"
   gridtolerance="10"
   guidetolerance="10"
   inkscape:pageopacity="0"
   inkscape:pageshadow="2"
   inkscape:window-width="1920"
   inkscape:window-height="1027"
   id="namedview87"
   showgrid="false"
   inkscape:zoom="0.54868791"
   inkscape:cx="215.0585"
   inkscape:cy="215.0585"
   inkscape:window-x="-8"
   inkscape:window-y="-8"
   inkscape:window-maximized="1"
   inkscape:current-layer="Capa_1" />
<g
   id="g54">
	<path
   id="LinkedIn"
   d="M430.117,261.543V420.56h-92.188V272.193c0-37.271-13.334-62.707-46.703-62.707   c-25.473,0-40.632,17.142-47.301,33.724c-2.432,5.928-3.058,14.179-3.058,22.477V420.56h-92.219c0,0,1.242-251.285,0-277.32h92.21   v39.309c-0.187,0.294-0.43,0.611-0.606,0.896h0.606v-0.896c12.251-18.869,34.13-45.824,83.102-45.824   C384.633,136.724,430.117,176.361,430.117,261.543z M52.183,9.558C20.635,9.558,0,30.251,0,57.463   c0,26.619,20.038,47.94,50.959,47.94h0.616c32.159,0,52.159-21.317,52.159-47.94C103.128,30.251,83.734,9.558,52.183,9.558z    M5.477,420.56h92.184v-277.32H5.477V420.56z" />
</g>
<g
   id="g56">
</g>
<g
   id="g58">
</g>
<g
   id="g60">
</g>
<g
   id="g62">
</g>
<g
   id="g64">
</g>
<g
   id="g66">
</g>
<g
   id="g68">
</g>
<g
   id="g70">
</g>
<g
   id="g72">
</g>
<g
   id="g74">
</g>
<g
   id="g76">
</g>
<g
   id="g78">
</g>
<g
   id="g80">
</g>
<g
   id="g82">
</g>
<g
   id="g84">
</g>
<path
   style="fill:#ffffff;stroke-width:1.82252967"
   d="M 5.467589,281.76309 V 143.25083 H 51.030831 96.594073 V 281.76309 420.27534 H 51.030831 5.467589 Z"
   id="path93"
   inkscape:connector-curvature="0" /><path
   style="fill:#ffffff;stroke-width:1.82252967"
   d="M 35.8534,102.47962 C 6.8064011,94.299238 -6.8904257,63.591111 6.3955705,36.435512 23.265829,1.9539459 80.173646,1.626391 97.259141,35.912512 106.32533,54.10598 102.97994,76.417441 89.123577,90.171194 76.732298,102.47071 54.25939,107.66323 35.8534,102.47962 Z"
   id="path95"
   inkscape:connector-curvature="0" /><path
   style="fill:#ffffff;stroke-width:1.82252967"
   d="M 149.44743,281.76309 V 143.25083 h 45.56325 45.56324 l 0.0956,20.50346 c 0.0924,19.82306 0.19743,20.35226 3.16432,15.94714 7.09986,-10.54158 23.12484,-25.47093 32.97631,-30.7217 28.19864,-15.02972 69.92825,-14.58848 99.22242,1.04916 14.57231,7.7789 30.49121,24.67669 38.25532,40.60771 13.8866,28.49363 15.72517,46.37728 15.78597,153.54813 l 0.0432,76.09061 H 384.65304 339.189 l -0.62655,-85.20326 c -0.72034,-97.95624 -0.72949,-98.02272 -15.62364,-113.39725 -10.09341,-10.41893 -19.50554,-13.65209 -35.94393,-12.34706 -13.38867,1.0629 -23.56068,6.00327 -32.31752,15.69605 -13.90745,15.39388 -13.13247,9.32961 -13.71414,107.31447 l -0.52203,87.93705 h -45.49685 -45.49685 z"
   id="path97"
   inkscape:connector-curvature="0" /></svg>