<?xml version="1.0" encoding="UTF-8" standalone="no"?>
<svg
   xmlns:dc="http://purl.org/dc/elements/1.1/"
   xmlns:cc="http://creativecommons.org/ns#"
   xmlns:rdf="http://www.w3.org/1999/02/22-rdf-syntax-ns#"
   xmlns:svg="http://www.w3.org/2000/svg"
   xmlns="http://www.w3.org/2000/svg"
   xmlns:sodipodi="http://sodipodi.sourceforge.net/DTD/sodipodi-0.dtd"
   xmlns:inkscape="http://www.inkscape.org/namespaces/inkscape"
   height="32"
   id="twitter"
   viewBox="0 0 32 32"
   width="32"
   version="1.1"
   sodipodi:docname="Twitter2.svg"
   inkscape:version="0.92.4 (5da689c313, 2019-01-14)">
  <defs
     id="defs139" />
  <sodipodi:namedview
     pagecolor="#ffffff"
     bordercolor="#666666"
     borderopacity="1"
     objecttolerance="10"
     gridtolerance="10"
     guidetolerance="10"
     inkscape:pageopacity="0"
     inkscape:pageshadow="2"
     inkscape:window-width="1920"
     inkscape:window-height="1027"
     id="namedview137"
     showgrid="false"
     inkscape:zoom="7.375"
     inkscape:cx="16"
     inkscape:cy="16"
     inkscape:window-x="-8"
     inkscape:window-y="-8"
     inkscape:window-maximized="1"
     inkscape:current-layer="twitter" />
  <path
     d="M2 4 C6 8 10 12 15 11 A6 6 0 0 1 22 4 A6 6 0 0 1 26 6 A8 8 0 0 0 31 4 A8 8 0 0 1 28 8 A8 8 0 0 0 32 7 A8 8 0 0 1 28 11 A18 18 0 0 1 10 30 A18 18 0 0 1 0 27 A12 12 0 0 0 8 24 A8 8 0 0 1 3 20 A8 8 0 0 0 6 19.5 A8 8 0 0 1 0 12 A8 8 0 0 0 3 13 A8 8 0 0 1 2 4"
     id="path132" />
  <metadata
     id="metadata134">
    <rdf:RDF>
      <rdf:Description
         about="https://iconscout.com/legal#licenses"
         dc:title="293708,twitter"
         dc:description="293708,twitter"
         dc:publisher="Iconscout"
         dc:date="2017-02-24"
         dc:format="image/svg+xml"
         dc:language="en">
        <dc:creator>
          <rdf:Bag>
            <rdf:li>Geom Icons</rdf:li>
          </rdf:Bag>
        </dc:creator>
      </rdf:Description>
      <cc:Work
         rdf:about="">
        <dc:format>image/svg+xml</dc:format>
        <dc:type
           rdf:resource="http://purl.org/dc/dcmitype/StillImage" />
        <dc:title></dc:title>
      </cc:Work>
    </rdf:RDF>
  </metadata>
  <path
     style="fill:#ffffff;stroke-width:0.13559322"
     d="M 7.4389837,29.775463 C 5.0835511,29.401934 1.8629044,28.230357 0.61433532,27.292856 0.36759441,27.107586 0.41908468,27.084865 1.2923014,26.993673 2.5646405,26.860803 4.2741233,26.354693 5.4628231,25.758951 6.5504873,25.213843 8.0091127,24.209092 7.9591467,24.039397 7.9413725,23.979032 7.5791075,23.788317 7.1541136,23.615586 6.7291197,23.442856 6.0760803,23.105609 5.7029148,22.866151 4.9628967,22.391281 3.6393308,21.033924 3.3265957,20.429161 l -0.1964964,-0.379983 0.9095266,-0.07575 c 1.0433235,-0.08689 1.9264758,-0.320055 1.9264758,-0.508615 0,-0.07107 -0.1003771,-0.129221 -0.2230601,-0.129221 -0.1226831,0 -0.6870899,-0.222514 -1.2542373,-0.494476 C 3.1412068,18.19491 1.5953753,16.68353 0.9664259,15.397242 0.48371561,14.410032 0.13964967,13.251706 0.13720256,12.605592 l -0.001609,-0.424916 0.80759744,0.326203 c 0.843754,0.340807 2.0398601,0.61745 2.0398601,0.471792 0,-0.04654 -0.2085495,-0.377952 -0.4634435,-0.736466 C 1.5589313,10.890993 0.96686033,8.6941422 1.1465679,7.1476071 1.2505548,6.2527115 1.5711146,5.0575446 1.8537383,4.5110106 L 2.0541139,4.123527 3.7050231,5.7357033 c 3.7924093,3.7034336 6.4261569,5.2474257 9.2619369,5.4296617 0.606404,0.03897 1.329688,0.02824 1.607299,-0.02384 l 0.504746,-0.09469 -0.08761,-0.584191 c -0.125358,-0.8359491 0.120548,-2.1411288 0.594044,-3.152965 0.527743,-1.1277627 1.608725,-2.1903983 2.81932,-2.7714703 2.092234,-1.0042491 5.338973,-0.5282203 7.071225,1.0367654 0.535066,0.4834 0.592708,0.5028036 1.238976,0.417073 1.121383,-0.1487566 2.340464,-0.5869625 3.22702,-1.1599713 0.460722,-0.2977793 0.837677,-0.5055259 0.837677,-0.4616591 0,0.043867 -0.197681,0.4544006 -0.439292,0.9122973 -0.259489,0.4917783 -0.852918,1.2436647 -1.449852,1.8369912 l -1.01056,1.004452 0.937669,-0.096067 c 0.515718,-0.052837 1.366457,-0.240076 1.89053,-0.4160872 0.524073,-0.1760111 0.978268,-0.2949701 1.009322,-0.2643532 0.109201,0.1076652 -0.966107,1.5366166 -1.608506,2.137506 -0.357337,0.3342471 -0.993293,0.8016322 -1.413236,1.0386332 l -0.763533,0.430911 -5.42e-4,1.30909 c -0.0014,3.347863 -1.126331,6.882256 -3.156472,9.917192 -0.875491,1.308807 -3.264554,3.698038 -4.572873,4.573196 -1.936923,1.295643 -4.132633,2.25021 -6.371805,2.770089 -1.315526,0.305434 -5.1092988,0.454532 -6.3915246,0.251195 z"
     id="path141"
     inkscape:connector-curvature="0" />
</svg>
