<?xml version="1.0"?>
<svg xmlns="http://www.w3.org/2000/svg" height="32" id="twitter" viewBox="0 0 32 32" width="32"><path d="M2 4 C6 8 10 12 15 11 A6 6 0 0 1 22 4 A6 6 0 0 1 26 6 A8 8 0 0 0 31 4 A8 8 0 0 1 28 8 A8 8 0 0 0 32 7 A8 8 0 0 1 28 11 A18 18 0 0 1 10 30 A18 18 0 0 1 0 27 A12 12 0 0 0 8 24 A8 8 0 0 1 3 20 A8 8 0 0 0 6 19.5 A8 8 0 0 1 0 12 A8 8 0 0 0 3 13 A8 8 0 0 1 2 4"/>
	<metadata>
		<rdf:RDF xmlns:rdf="http://www.w3.org/1999/02/22-rdf-syntax-ns#" xmlns:rdfs="http://www.w3.org/2000/01/rdf-schema#" xmlns:dc="http://purl.org/dc/elements/1.1/">
			<rdf:Description about="https://iconscout.com/legal#licenses" dc:title="293708,twitter" dc:description="293708,twitter" dc:publisher="Iconscout" dc:date="2017-02-24" dc:format="image/svg+xml" dc:language="en">
				<dc:creator>
					<rdf:Bag>
						<rdf:li>Geom Icons</rdf:li>
					</rdf:Bag>
				</dc:creator>
			</rdf:Description>
		</rdf:RDF>
    </metadata></svg>
